<svg viewBox="0 0 126 126" fill="none">
<path d="M77.8335 18.0608V11.6576H63.8418V14.8592C63.8418 17.9753 61.3001 20.517 58.184 20.517C55.068 20.517 52.5262 17.9753 52.5262 14.8592H46.123C46.123 21.5068 51.5364 26.9202 58.184 26.9202C63.7196 26.9202 68.3998 23.1687 69.8051 18.0608H73.3733L77.8335 22.521V18.0608Z" fill="#266EF9"/>
<path d="M35.8235 8.29727H38.4263C36.3123 10.729 35.017 13.8451 34.9436 17.2422V17.4622C34.907 21.2381 36.7155 24.9285 39.7583 27.3358L66.6908 48.6594C67.3751 49.1971 67.8761 49.6614 68.2794 50.1013C72.5074 54.8426 72.6174 61.8568 68.6337 66.7081C69.5502 68.981 70.0879 71.4494 70.1368 74.04C71.1144 73.319 72.0431 72.5003 72.8862 71.5716C79.5583 64.2641 79.6316 53.2052 73.0451 45.8366C72.3975 45.1034 71.6398 44.4069 70.6622 43.637L43.7297 22.3134C42.2145 21.1159 41.3224 19.3196 41.3346 17.511V17.3766C41.4324 13.063 45.1594 9.55591 49.6563 9.55591H77.8353V3.17716C77.8353 2.29733 77.4809 1.50304 76.9066 0.928708C76.3322 0.354375 75.538 0 74.6581 0C72.9229 0 71.4932 1.42972 71.481 3.16494H49.6563C49.2409 3.16494 48.8132 3.18938 48.4099 3.22604L48.471 3.18938H35.9579C35.9579 3.18938 35.8724 3.18938 35.8235 3.18938C35.7746 3.18938 35.7379 3.18938 35.7013 3.18938H33.2695V5.74332C33.2695 7.16083 34.4182 8.30949 35.8357 8.30949L35.8235 8.29727Z" fill="#266EF9"/>
<path d="M58.8312 86.9807C62.5949 84.1091 65.0267 79.5877 65.0267 74.5043C65.0267 65.8526 57.988 58.814 49.3364 58.814C45.2427 58.814 41.5157 60.3904 38.7173 62.9687L38.6929 62.9443L11.4915 90.1457C10.5506 91.0866 9.01091 91.0866 8.05776 90.1457C7.60563 89.6935 7.34901 89.0825 7.34901 88.4349C7.34901 87.7872 7.60563 87.1762 8.05776 86.7241L23.8947 70.8872C25.7277 69.0542 26.6686 66.5125 26.4486 63.9219C26.2409 61.3313 24.9089 58.9851 22.7949 57.4698C19.2634 54.9281 14.4732 55.3191 11.3938 58.3985L4.46513 65.3272L2.02116 62.8832V72.1336H11.2716L8.99869 69.8607L15.9273 62.9321C16.7705 62.0889 18.0903 61.9789 19.0678 62.6755C19.8621 63.2498 20.0332 64.0319 20.0699 64.4473C20.1065 64.8628 20.0699 65.6693 19.3611 66.3659L3.5242 82.2028C1.8623 83.8647 0.933594 86.0887 0.933594 88.4471C0.933594 90.8055 1.85008 93.0173 3.5242 94.6914C5.2472 96.4144 7.50787 97.2698 9.76854 97.2698C12.0292 97.2698 14.2899 96.4144 16.0129 94.6914L33.8172 76.8871C34.0982 78.7323 34.697 80.4798 35.5646 82.0561L16.2451 101.376L39.1939 86.4919C41.308 88.2882 43.9108 89.5347 46.7702 89.999L30.5667 106.203L24.2491 112.52L29.5036 110.761L44.1552 118.483C43.3731 119.021 42.4322 119.339 41.4179 119.339C40.9536 119.339 40.5137 119.278 40.086 119.156C40.6603 121.196 42.5422 122.687 44.7539 122.687C46.3059 122.687 47.6745 121.954 48.5788 120.83L50.595 121.893L51.7315 122.492C52.1714 122.724 52.4891 123.176 52.4891 123.677C52.4891 124.141 52.428 124.593 52.3058 125.021C54.3465 124.447 55.8373 122.565 55.8373 120.353C55.8373 118.63 54.9331 117.127 53.5889 116.272V116.247L53.1612 116.015L52.6968 115.771L51.8659 115.331C52.7457 114.426 53.9677 113.877 55.3241 113.877C55.7885 113.877 56.2284 113.938 56.6561 114.06C56.0817 112.019 54.1999 110.528 51.9881 110.528C50.1307 110.528 48.5054 111.579 47.6989 113.131L37.9108 107.974L58.8556 87.0296L58.8312 86.9807ZM49.3364 83.7914C44.2163 83.7914 40.0493 79.6244 40.0493 74.5043C40.0493 69.3842 44.2163 65.2172 49.3364 65.2172C54.4565 65.2172 58.6235 69.3842 58.6235 74.5043C58.6235 76.4839 58.0003 78.3169 56.9371 79.8199L54.652 82.105C53.149 83.1681 51.316 83.7914 49.3364 83.7914Z" fill="#266EF9"/>
<path d="M7.15332 33.8246H26.5584C27.4627 35.7553 28.538 37.5883 29.7478 39.3235L21.8049 47.2664L22.7092 48.1707C24.7132 50.1747 27.9515 50.1747 29.9555 48.1707L33.8903 44.2359C40.5257 50.8591 49.6662 54.9649 59.7597 54.9649C61.5927 54.9649 63.4379 54.8305 65.2464 54.5494C65.0265 54.1829 64.7577 53.8407 64.4644 53.5108C64.2689 53.2908 63.9634 53.0098 63.5357 52.6798L58.2811 48.5251C42.2976 47.7552 29.5278 34.5089 29.5278 18.3421V16.558L8.04537 3.18945C4.94153 4.27702 4.46495 8.48065 7.2633 10.2281L23.1613 20.1506C23.2835 22.6434 23.6623 25.0874 24.2611 27.4214H2.0332V28.7045C2.0332 31.5273 4.33053 33.8246 7.15332 33.8246Z" fill="#266EF9"/>
<path d="M88.0239 86.2721L87.7551 86.2598C87.7307 86.2598 87.7062 86.2598 87.6818 86.2598H86.2276C86.582 85.0501 87.4252 83.987 88.6227 83.3637C89.026 83.156 89.4537 82.9971 89.8936 82.9116C88.4394 81.3719 86.0932 80.9198 84.1136 81.9462C82.4517 82.8138 81.5108 84.5124 81.5108 86.2721H73.7634C75.3153 83.2782 76.2562 79.9911 76.5373 76.5817C74.3622 78.4514 71.8571 79.93 69.1076 80.9198C68.2767 83.266 67.0058 85.4411 65.3073 87.323L60.5293 92.663H80.8509C80.411 93.4818 79.7267 94.1905 78.8346 94.6549C78.4314 94.8626 78.0037 95.0215 77.5638 95.107C79.0179 96.6467 81.3641 97.0988 83.3437 96.0724C84.7124 95.3636 85.5922 94.0805 85.861 92.6753H88.0117H89.4292C89.9302 92.6753 90.419 92.9319 90.6512 93.384C90.8589 93.7873 91.0178 94.215 91.1033 94.6549C92.643 93.2007 93.0952 90.8545 92.0687 88.8749C91.25 87.2985 89.6736 86.3698 88.0117 86.2843L88.0239 86.2721Z" fill="#266EF9"/>
<path d="M80.3259 37.2827C80.4603 36.8428 80.6558 36.4395 80.9002 36.0607C78.7862 35.9996 76.7944 37.3438 76.1345 39.47C76.1345 39.47 76.1345 39.4945 76.1345 39.5067C75.7068 40.912 76.1345 42.4517 77.0999 43.5393C78.2119 44.7857 79.1894 46.1665 80.0204 47.6207C80.1304 47.8162 80.2404 48.0239 80.3503 48.2195C80.497 48.5005 80.6436 48.7816 80.778 49.0626C82.3055 52.2398 83.0998 55.7224 83.0998 59.2662C86.0326 57.641 88.0122 54.5249 88.0122 50.9323C88.0122 50.2113 87.8778 49.5025 87.6334 48.8304C87.1446 47.5229 86.5702 46.2521 85.9104 45.0179C87.0101 44.4557 88.3177 44.3091 89.5885 44.7001C90.0284 44.8468 90.4317 45.0301 90.7983 45.2745C90.8594 43.1604 89.5152 41.1808 87.4012 40.5087C85.9226 40.0444 84.3951 40.3254 83.1975 41.1319L80.6925 38.6024C80.3381 38.2481 80.1792 37.7226 80.3259 37.246V37.2827Z" fill="#266EF9"/>
<path d="M123.094 25.1864C124.181 22.5614 122.935 19.552 120.31 18.4647C117.685 17.3774 114.675 18.6239 113.588 21.2489C112.501 23.8739 113.747 26.8833 116.372 27.9706C118.997 29.0579 122.006 27.8113 123.094 25.1864Z" fill="#266EF9"/>
<path d="M102.906 28.35C105.748 28.35 108.051 26.0467 108.051 23.2054C108.051 20.3641 105.748 18.0609 102.906 18.0609C100.065 18.0609 97.7617 20.3641 97.7617 23.2054C97.7617 26.0467 100.065 28.35 102.906 28.35Z" fill="#266EF9"/>
<path d="M115.377 35.2856C116.464 32.6606 115.218 29.6512 112.593 28.5639C109.968 27.4766 106.958 28.7231 105.871 31.3481C104.784 33.9731 106.03 36.9825 108.655 38.0698C111.28 39.1571 114.29 37.9106 115.377 35.2856Z" fill="#266EF9"/>
<path d="M119.523 92.5098C122.288 91.8571 124.001 89.0863 123.348 86.321C122.695 83.5557 119.925 81.8431 117.159 82.4958C114.394 83.1485 112.681 85.9193 113.334 88.6845C113.987 91.4498 116.758 93.1624 119.523 92.5098Z" fill="#266EF9"/>
<path d="M102.906 92.6387C105.748 92.6387 108.051 90.3354 108.051 87.4942C108.051 84.6529 105.748 82.3496 102.906 82.3496C100.065 82.3496 97.7617 84.6529 97.7617 87.4942C97.7617 90.3354 100.065 92.6387 102.906 92.6387Z" fill="#266EF9"/>
<path d="M114.269 81.0274C116.278 79.0183 116.278 75.761 114.269 73.7519C112.26 71.7428 109.002 71.7428 106.993 73.7519C104.984 75.761 104.984 79.0183 106.993 81.0274C109.002 83.0365 112.26 83.0365 114.269 81.0274Z" fill="#266EF9"/>
<path d="M113.187 12.9408V3.16492C110.364 3.16492 108.066 5.46225 108.066 8.28503V18.0609C110.889 18.0609 113.187 15.7636 113.187 12.9408Z" fill="#266EF9"/>
</svg>
