<svg viewBox="0 0 16 16" fill="none" xmlns="http://www.w3.org/2000/svg">
  <path
    d="M5.33301 11.3333H10.6663M5.33301 11.3333C5.33301 12.0697 4.73605 12.6666 3.99967 12.6666C3.26329 12.6666 2.66634 12.0697 2.66634 11.3333M5.33301 11.3333C5.33301 10.5969 4.73605 9.99998 3.99967 9.99998C3.26329 9.99998 2.66634 10.5969 2.66634 11.3333M10.6663 11.3333C10.6663 12.0697 11.2633 12.6666 11.9997 12.6666C12.7361 12.6666 13.333 12.0697 13.333 11.3333M10.6663 11.3333C10.6663 10.5969 11.2633 9.99998 11.9997 9.99998C12.7361 9.99998 13.333 10.5969 13.333 11.3333M2.66634 11.3333H2.39967C2.02631 11.3333 1.83962 11.3333 1.69701 11.2606C1.57157 11.1967 1.46959 11.0948 1.40567 10.9693C1.33301 10.8267 1.33301 10.64 1.33301 10.2666V9.46665C1.33301 8.71991 1.33301 8.34651 1.47833 8.06131C1.60616 7.81045 1.81013 7.60645 2.06102 7.47865C2.34623 7.33331 2.71961 7.33331 3.46634 7.33331H11.4663C11.9618 7.33331 12.2095 7.33331 12.4168 7.36611C13.5579 7.54685 14.4528 8.44178 14.6335 9.58285C14.6663 9.79011 14.6663 10.0378 14.6663 10.5333C14.6663 10.6572 14.6663 10.7191 14.6581 10.7709C14.6129 11.0562 14.3892 11.2799 14.1039 11.3251C14.0521 11.3333 13.9902 11.3333 13.8663 11.3333H13.333M6.66634 3.33331V7.33331M2.66634 7.33331L2.88735 6.00723C3.04568 5.05727 3.12485 4.58228 3.36187 4.22585C3.57081 3.91165 3.86437 3.66296 4.20865 3.50852C4.59921 3.33331 5.08074 3.33331 6.04381 3.33331H8.28707C8.91321 3.33331 9.22627 3.33331 9.51047 3.41961C9.76207 3.49602 9.99607 3.62127 10.1992 3.78822C10.4287 3.9768 10.6023 4.23729 10.9497 4.75827L12.6663 7.33331"
    stroke="#24282C" stroke-linecap="round" stroke-linejoin="round" />
</svg>