<svg width="32rem" height="19rem" viewBox="0 0 32 19" xmlns="http://www.w3.org/2000/svg">
<path d="M2.35548 12.8178C2.07907 12.1875 1.49994 11.8342 1.05243 12.042C0.60492 12.2498 0.473299 12.9287 0.749702 13.5591C1.02611 14.1895 1.60524 14.5428 2.05275 14.3349C2.49368 14.134 2.63188 13.4552 2.35548 12.8178ZM6.93588 16.3646C7.04115 16.6971 6.86346 17.0574 6.54759 17.1682C6.25144 17.3414 5.87632 17.2375 5.69863 16.9327C5.59992 16.5933 5.77103 16.233 6.0935 16.1291C6.38965 15.9559 6.75819 16.0599 6.93588 16.3646ZM11.6413 17.4661C12.2007 18.145 13.8525 18.5953 15.9519 18.8239C14.1553 17.6323 12.4179 16.4686 10.7068 15.3394C10.7924 16.136 11.1214 16.8842 11.6413 17.4661ZM4.90891 14.3419C5.77103 15.6511 7.68613 14.7783 8.94306 14.1825C7.3702 13.1504 5.81051 12.139 4.25739 11.1553C4.47457 11.467 4.62593 11.8203 4.7049 12.2013C4.86942 13.1157 4.46798 13.6699 4.90891 14.3419ZM2.34889 7.15821C7.51503 10.4903 12.3389 14.4597 18.8936 18.9971C20.0387 19.0109 21.2167 18.9763 22.3749 18.8862C13.3524 13.2058 9.57487 8.48827 4.62593 5.04534C3.6651 5.46791 2.7964 6.03597 2.34889 7.15821ZM30.5881 15.9906C31.2857 15.187 31.6476 14.1271 31.6016 13.0395C21.4141 10.6773 22.9673 6.9088 18.071 3.97853C17.2812 4.13786 16.4586 4.06859 15.7018 3.77071C15.1951 3.51439 14.662 3.23038 13.5761 2.14971C12.102 1.74792 10.6147 1.42233 9.11422 1.1868C9.01547 1.40155 8.94306 1.63708 8.85753 1.88647C19.8347 4.69898 14.6291 10.5941 30.5881 15.9906ZM8.52849 2.62769C8.2718 3.07104 7.91643 3.44512 7.50186 3.72222C7.25176 3.8954 6.98854 4.0478 6.71869 4.1725C11.536 7.55307 14.0302 12.5685 25.0008 18.5814C25.626 18.4775 26.2249 18.3666 26.7777 18.2281C27.4687 18.0619 28.14 17.7987 28.7717 17.4592C14.1421 11.3215 15.6163 5.7173 8.52849 2.62769ZM10.5357 0.0784228C10.1738 0.154624 9.83808 0.327807 9.54854 0.570268C10.6476 0.736524 11.6545 0.916634 12.5824 1.10367C11.7466 0.175406 11.4768 -0.170962 10.5357 0.0784228ZM20.5389 3.68758C25.343 6.33382 24.119 9.30566 30.8579 10.5872C30.746 10.3794 30.6276 10.1716 30.4894 9.96379C29.1534 7.91329 24.4809 3.99931 20.5389 3.68758Z" />
</svg>
