<svg width="16" height="16" viewBox="0 0 16 16" fill="none" xmlns="http://www.w3.org/2000/svg">
  <path
    d="M5.03344 14.5001C11.0697 14.5001 14.3722 9.49786 14.3722 5.1613C14.3722 5.02068 14.3691 4.87693 14.3628 4.7363C15.0052 4.2717 15.5597 3.69623 16 3.03693C15.4017 3.30313 14.7664 3.47698 14.1159 3.55255C14.8009 3.142 15.3137 2.49704 15.5594 1.73724C14.915 2.1191 14.2104 2.38847 13.4756 2.5338C12.9806 2.00777 12.326 1.65947 11.6131 1.54276C10.9003 1.42605 10.1688 1.54743 9.53183 1.88813C8.89486 2.22882 8.38787 2.76986 8.08923 3.4276C7.7906 4.08534 7.71695 4.82314 7.87969 5.52693C6.575 5.46145 5.29862 5.12253 4.13332 4.53213C2.96802 3.94172 1.9398 3.11302 1.11531 2.09974C0.696266 2.82222 0.568038 3.67716 0.756687 4.49079C0.945337 5.30442 1.43671 6.01569 2.13094 6.48005C1.60975 6.4635 1.09998 6.32318 0.64375 6.07068V6.1113C0.643283 6.86949 0.905399 7.60445 1.38554 8.19124C1.86568 8.77803 2.53422 9.18044 3.2775 9.33005C2.7947 9.46215 2.28799 9.48139 1.79656 9.3863C2.0063 10.0384 2.41438 10.6087 2.96385 11.0176C3.51331 11.4266 4.17675 11.6538 4.86156 11.6676C3.69895 12.5808 2.26278 13.0761 0.784375 13.0738C0.522191 13.0734 0.260266 13.0573 0 13.0257C1.5019 13.9892 3.24902 14.501 5.03344 14.5001Z"
    fill="#0B5DF9" />
</svg>