<?xml version="1.0" standalone="no"?>
<!DOCTYPE svg PUBLIC "-//W3C//DTD SVG 20010904//EN"
 "http://www.w3.org/TR/2001/REC-SVG-20010904/DTD/svg10.dtd">
<svg version="1.0" xmlns="http://www.w3.org/2000/svg"
 width="700.000000pt" height="700.000000pt" viewBox="0 0 700.000000 700.000000"
 preserveAspectRatio="xMidYMid meet">
<metadata>
Created by potrace 1.14, written by Peter Selinger 2001-2017
</metadata>
<g transform="translate(0.000000,700.000000) scale(0.100000,-0.100000)"
fill="#000000" stroke="none">
<path d="M4014 6569 c-49 -26 -82 -65 -90 -106 l-6 -33 -562 0 c-308 -1 -733
-1 -943 -1 l-382 0 3 -83 c3 -132 39 -168 164 -171 82 -1 89 -8 52 -47 -33
-35 -98 -179 -116 -253 -20 -84 -22 -210 -5 -285 20 -85 84 -209 141 -273 29
-31 113 -106 188 -165 76 -59 146 -114 157 -124 11 -9 187 -148 390 -309 204
-160 404 -319 445 -352 41 -32 91 -72 110 -87 154 -122 192 -156 228 -202 84
-110 130 -245 130 -389 0 -126 -33 -235 -106 -347 -34 -52 -34 -52 -18 -92 16
-40 18 -48 36 -135 13 -64 18 -102 19 -142 1 -18 5 -33 11 -33 17 0 139 121
189 188 248 337 249 795 2 1125 -67 90 -123 142 -311 289 -19 15 -236 186
-481 380 -245 194 -463 367 -484 383 -112 89 -164 130 -199 158 -108 88 -140
148 -141 263 0 73 4 88 37 156 62 125 178 208 313 225 33 5 372 8 753 7 l693
-1 -3 186 c-3 176 -4 188 -26 219 -45 62 -124 84 -188 51z"/>
<path d="M765 6418 c-114 -61 -139 -210 -52 -306 16 -17 348 -232 445 -287 19
-11 365 -226 370 -230 1 -1 4 -19 7 -41 9 -78 25 -190 30 -219 6 -30 10 -47
21 -85 5 -20 1 -20 -545 -20 l-551 0 0 -43 c0 -107 50 -192 141 -242 l54 -29
507 -1 c279 0 509 -2 511 -5 2 -3 19 -34 38 -70 18 -36 53 -94 76 -130 l43
-65 -197 -197 -197 -197 40 -36 c63 -59 110 -79 184 -78 90 0 131 23 264 153
l110 109 70 -63 c140 -124 279 -216 442 -292 89 -42 263 -105 324 -118 102
-22 137 -28 230 -40 108 -13 323 -14 420 -1 30 4 56 8 58 10 17 14 -325 295
-361 296 -12 0 -35 2 -52 4 -71 9 -112 15 -135 20 -14 3 -37 7 -52 10 -15 3
-75 21 -132 40 -486 159 -861 565 -986 1066 -11 45 -22 105 -25 133 -4 28 -8
60 -10 71 -2 11 -4 68 -4 126 l-1 105 -297 186 c-315 196 -741 460 -758 470
-6 4 -19 2 -30 -4z"/>
<path d="M5894 6413 c-57 -19 -118 -74 -145 -131 -23 -46 -24 -55 -24 -317 l0
-270 35 3 c80 8 153 62 191 140 22 45 23 57 23 317 1 305 7 287 -80 258z"/>
<path d="M3540 5907 c0 -163 -39 -240 -151 -302 -103 -56 -237 -35 -323 51
-38 38 -76 109 -76 141 0 53 -1 53 -166 53 l-154 0 0 -42 c0 -81 43 -202 101
-289 111 -165 305 -265 509 -262 212 3 412 132 510 327 22 43 40 85 40 92 0
16 4 16 109 16 l74 0 108 -108 109 -109 0 268 0 267 -345 0 -345 0 0 -103z"/>
<path d="M5420 5685 c-243 -49 -277 -377 -50 -478 57 -26 144 -25 203 1 136
61 191 238 112 362 -63 97 -155 138 -265 115z"/>
<path d="M6142 5677 c-43 -14 -115 -78 -136 -121 -27 -56 -34 -116 -21 -173
26 -114 124 -193 242 -195 174 -3 293 157 244 330 -16 55 -82 129 -139 153
-48 21 -136 24 -190 6z"/>
<path d="M5815 5192 c-85 -15 -162 -74 -197 -151 -43 -95 -17 -213 63 -286
112 -101 269 -87 368 32 101 122 53 317 -94 383 -41 19 -105 29 -140 22z"/>
<path d="M4293 4788 c-62 -23 -127 -89 -142 -144 -24 -86 -7 -145 71 -241 66
-83 86 -111 127 -186 84 -151 138 -350 140 -515 l1 -42 28 17 c124 77 212 232
214 379 1 75 -14 125 -70 244 l-29 61 21 12 c32 17 145 15 184 -5 l32 -16 0
28 c0 66 -62 155 -133 192 -53 27 -149 29 -201 4 -43 -20 -43 -21 -126 68 -60
64 -63 71 -51 109 6 18 12 36 13 41 5 16 -26 14 -79 -6z"/>
<path d="M1156 3819 c-91 -22 -152 -68 -350 -265 l-193 -192 -61 61 -62 62 0
-227 c0 -172 3 -227 13 -230 10 -3 420 -2 437 1 2 1 -20 26 -50 56 l-53 54
175 175 c97 97 190 182 208 190 75 31 149 -18 158 -104 l5 -51 -430 -432
c-252 -253 -441 -451 -456 -477 -125 -221 -40 -499 187 -610 71 -34 116 -43
206 -42 75 1 183 36 237 78 18 14 236 228 483 475 248 248 450 447 451 442 3
-40 38 -152 60 -195 10 -20 19 -42 19 -48 0 -6 -209 -220 -465 -476 -256 -256
-465 -467 -465 -469 0 -2 39 22 88 54 87 58 135 89 462 301 96 62 225 145 285
185 204 133 272 175 281 175 5 0 25 -13 44 -29 46 -38 191 -106 260 -122 30
-7 57 -14 60 -16 2 -2 -243 -251 -545 -553 -303 -303 -545 -550 -540 -550 6 0
62 18 125 40 l115 39 40 -20 c22 -12 96 -51 165 -87 260 -137 387 -204 448
-235 34 -17 62 -35 62 -39 0 -16 -77 -39 -131 -39 l-57 0 12 -31 c15 -41 95
-112 144 -126 78 -24 161 -7 221 44 l40 35 63 -32 c35 -17 78 -43 96 -56 31
-23 34 -29 30 -69 -4 -52 4 -54 57 -18 70 47 103 104 109 184 7 99 -48 188
-149 240 l-46 24 23 18 c42 34 92 50 155 51 l63 0 -23 40 c-30 54 -89 102
-143 117 -92 26 -208 -12 -257 -84 l-22 -34 -160 85 c-88 47 -197 104 -242
127 l-82 43 585 584 c323 321 599 602 614 624 43 62 86 154 111 235 19 61 23
98 23 195 1 132 -4 166 -35 257 -30 90 -90 200 -134 244 -6 7 -22 25 -36 41
-93 111 -289 213 -454 238 -183 28 -406 -28 -560 -139 -27 -19 -363 -348 -745
-730 -765 -764 -725 -730 -807 -690 -58 29 -85 107 -54 161 4 7 198 205 432
440 441 445 454 460 484 573 12 45 12 157 1 209 -14 61 -68 154 -119 204 -110
106 -265 150 -411 116z m1764 -463 c157 -27 313 -179 351 -341 23 -100 7 -232
-38 -320 -24 -45 -143 -164 -187 -187 -143 -73 -284 -75 -426 -6 -137 67 -237
214 -247 364 -22 315 233 543 547 490z"/>
<path d="M5765 3005 c-119 -44 -188 -176 -161 -303 15 -72 93 -153 172 -179
37 -13 128 -10 164 5 157 65 213 269 108 396 -67 81 -188 116 -283 81z"/>
<path d="M4084 2741 c-76 -54 -238 -141 -263 -141 -6 0 -33 -45 -60 -99 -44
-89 -117 -199 -161 -241 -8 -8 -51 -55 -94 -105 -44 -49 -91 -102 -104 -117
l-25 -27 498 -1 c274 0 500 -2 502 -3 1 -2 -12 -20 -30 -39 -35 -39 -109 -81
-123 -70 -5 4 0 -4 11 -17 27 -33 95 -62 147 -63 113 -2 207 66 242 175 5 15
19 17 103 17 108 0 128 -9 152 -65 12 -29 13 -29 28 -10 49 64 66 155 41 226
-33 98 -110 155 -224 165 -38 3 -71 8 -73 10 -2 2 9 24 23 49 26 44 76 84 124
99 30 10 28 17 -14 44 -94 61 -219 48 -298 -32 -40 -40 -55 -68 -70 -138 -6
-24 -11 -28 -44 -29 -54 -1 -272 -1 -309 0 l-32 1 35 75 c37 79 79 227 89 310
4 28 9 58 11 68 3 9 4 17 2 17 -2 0 -40 -26 -84 -59z"/>
<path d="M5365 2497 c-119 -57 -176 -185 -135 -306 23 -69 59 -112 121 -146
128 -69 291 -13 350 120 33 75 26 168 -17 236 -66 106 -208 148 -319 96z"/>
<path d="M6160 2511 c-45 -14 -84 -39 -111 -68 -150 -161 -48 -415 171 -427
143 -8 263 108 262 253 0 95 -53 181 -136 223 -44 22 -145 33 -186 19z"/>
</g>
</svg>
