<svg width="1223" height="700" viewBox="0 0 1223 700" fill="none" xmlns="http://www.w3.org/2000/svg">
<path opacity="0.6" d="M973.523 890.286C1015.19 890.286 1050.73 918.118 1061.89 956.171C1054.26 954.12 1045.78 952.956 1037.3 952.956C1011.21 952.956 987.949 963.626 970.978 980.882L970.507 981.361L971.101 981.675L987.043 990.101L987.045 990.102L995.795 994.782L995.796 994.782L1003.66 999.01V999.335V999.612L1003.9 999.759C1029.7 1015.9 1046.8 1044.46 1046.8 1077.05C1046.8 1118.65 1018.92 1154.13 980.797 1165.28C982.856 1157.39 984.027 1149.19 984.027 1140.41C984.027 1130.83 977.961 1121.94 969.376 1117.49L947.808 1106.26L947.806 1106.26L909.355 1085.97L908.986 1085.78L908.728 1086.1C891.936 1107.53 865.817 1121.49 836.279 1121.49C794.613 1121.49 759.074 1093.66 747.907 1055.61C755.545 1057.66 764.024 1058.82 772.503 1058.82C791.991 1058.82 809.909 1052.86 824.995 1042.51L825.678 1042.04L824.945 1041.65L545.456 894.649L545.266 894.549L545.064 894.617L446.732 927.646L565.897 808.68L875.086 500.006L875.78 499.313L874.811 499.158C820.195 490.434 770.571 466.755 730.31 432.481L730.026 432.239L729.714 432.442L295.709 713.565L661.248 348.634L661.514 348.369L661.334 348.04C644.791 317.815 633.244 284.788 627.938 249.58L627.791 248.602L627.091 249.301L287.264 588.561C254.536 621.235 211.521 637.728 168.506 637.728C125.491 637.728 82.4771 621.235 49.7484 588.561C17.954 556.819 0.5 514.812 0.5 470.002C0.5 425.192 17.954 383.185 49.7484 351.443L352.055 49.6402C352.056 49.6393 352.057 49.6383 352.058 49.6373C365.65 36.382 366.278 20.9123 365.648 12.7274L365.648 12.7259C365.016 4.84654 361.856 -10.3055 346.369 -21.3489L346.365 -21.3516C327.414 -34.5955 302.133 -32.7068 285.701 -16.3019L153.46 115.719L153.105 116.073L153.46 116.427L196.06 158.956H21.1334V-15.6787L66.8616 29.9734L67.2149 30.3261L67.5682 29.9734L199.81 -102.048C258.411 -160.551 349.426 -168.019 416.754 -119.785L416.755 -119.784C456.963 -91.1568 482.211 -46.3481 486.263 2.81947C490.315 51.9854 472.549 100.218 437.638 135.07L135.327 436.877C126.477 445.712 121.737 457.389 121.737 470.002C121.737 482.614 126.476 494.289 135.324 503.124C153.341 521.427 183.047 521.422 201.373 503.127L720.501 -14.5117H720.607H720.802L720.946 -14.6441C774.317 -63.8751 845.476 -93.7868 923.503 -93.7868C1088.29 -93.7868 1222.5 40.1961 1222.5 204.711C1222.5 300.941 1176.65 386.966 1105.33 441.527V440.707L1104.47 441.559L704.622 840.743L704.142 841.223L704.743 841.539L891.381 939.853L891.822 940.085L892.056 939.646C907.606 910.46 938.08 890.286 973.523 890.286Z" stroke="white"/>
</svg>
