<svg width="1395" height="1551" viewBox="0 0 1395 1551" fill="none" xmlns="http://www.w3.org/2000/svg">
<path d="M284.563 1226.02C236.963 1226.02 196.355 1258.85 183.654 1303.74C192.393 1301.3 202.105 1299.92 211.818 1299.92C241.561 1299.92 268.077 1312.47 287.421 1332.75L287.871 1333.22L287.298 1333.54L269.114 1343.45L269.112 1343.45L259.13 1348.96L259.13 1348.96L250.117 1353.95V1354.39V1354.66L249.888 1354.81C220.431 1373.81 200.906 1407.44 200.906 1445.81C200.906 1494.84 232.801 1536.65 276.37 1549.72C274.001 1540.4 272.652 1530.72 272.652 1520.35C272.652 1509.13 279.545 1498.69 289.32 1493.47L313.921 1480.25L313.924 1480.25L357.782 1456.39L358.16 1456.18L358.42 1456.53C377.589 1481.74 407.4 1498.18 441.108 1498.18C488.708 1498.18 529.316 1465.35 542.017 1420.47C533.278 1422.9 523.566 1424.28 513.854 1424.28C491.636 1424.28 471.21 1417.27 454.013 1405.1L453.357 1404.64L454.064 1404.25L772.86 1231.32L773.054 1231.22L773.262 1231.29L885.74 1270.25L749.561 1130.04L396.888 766.93L396.222 766.244L397.166 766.089C459.474 755.824 516.087 727.964 562.021 687.636L562.309 687.383L562.628 687.596L1058.29 1018.71L640.799 588.862L640.546 588.601L640.716 588.279C659.59 552.714 672.766 513.85 678.819 472.421L678.966 471.417L679.672 472.145L1067.29 871.239C1104.64 909.691 1153.72 929.098 1202.8 929.098C1251.87 929.098 1300.95 909.691 1338.3 871.239C1374.58 833.884 1394.5 784.444 1394.5 731.703C1394.5 678.961 1374.58 629.521 1338.3 592.166L993.476 237.134C993.475 237.134 993.475 237.133 993.474 237.132C977.996 221.565 977.28 203.4 977.998 193.788L977.998 193.786C978.717 184.535 982.314 166.742 999.953 153.77L999.957 153.767C1021.55 138.204 1050.36 140.426 1069.07 159.699L1219.91 315.004L1220.25 315.352L1219.91 315.701L1171.17 365.886H1370.96V160.178L1318.69 214L1318.33 214.369L1317.97 214L1167.13 58.6944C1100.27 -10.1522 996.421 -18.9381 919.599 37.8205L919.598 37.8214C873.718 71.5106 844.905 124.246 840.28 182.116C835.656 239.985 855.932 296.751 895.769 337.767L1240.6 692.803C1250.68 703.181 1256.07 716.892 1256.07 731.703C1256.07 746.513 1250.68 760.224 1240.6 770.602C1220.07 792.102 1186.23 792.096 1165.35 770.602L573.194 161.649H573.048H572.849L572.704 161.511C511.814 103.584 430.632 68.3919 341.618 68.3919C153.626 68.3919 0.5 226.03 0.5 419.624C0.5 532.91 52.8567 634.172 134.293 698.365V697.427L135.152 698.311L591.237 1167.9L591.696 1168.37L591.117 1168.69L378.23 1284.34L377.781 1284.58L377.547 1284.13C359.795 1249.77 325.01 1226.02 284.563 1226.02Z" stroke="url(#paint0_linear_16716_9061)"/>
<defs>
<linearGradient id="paint0_linear_16716_9061" x1="149.5" y1="375" x2="285.5" y2="1262.5" gradientUnits="userSpaceOnUse">
<stop stop-color="#ECEDF2"/>
<stop offset="1" stop-color="#ECEDF2" stop-opacity="0"/>
</linearGradient>
</defs>
</svg>
