<svg width="937" height="1043" viewBox="0 0 937 1043" fill="none" xmlns="http://www.w3.org/2000/svg">
<g style="mix-blend-mode:soft-light" opacity="0.2">
<path d="M846.461 470.487C901.551 427.264 937 358.849 937 282.284C937 151.875 834.007 45.6714 707.54 45.6714C647.66 45.6714 593.05 69.382 552.092 108.406H551.853L154.011 518.155C140.119 532.48 117.604 532.48 103.951 518.155C97.2449 511.24 93.6521 502.101 93.6521 492.222C93.6521 482.342 97.2449 473.204 103.951 466.288L335.567 227.453C362.393 199.791 376.045 161.508 372.932 122.484C369.818 83.4602 350.417 47.8943 319.519 25.1716C267.783 -13.1112 197.843 -7.18354 152.813 39.2498L51.4966 143.725L15.8083 106.924V246.471H151.137L117.843 212.14L219.16 107.665C231.615 94.8215 250.777 93.3396 265.148 103.713C276.884 112.358 279.28 124.213 279.759 130.388C280.238 136.809 279.759 148.911 269.459 159.285L37.844 398.12C13.413 423.313 0 456.656 0 492.222C0 527.788 13.413 561.131 37.844 586.323C62.9936 612.257 96.0473 625.347 129.101 625.347C162.155 625.347 195.208 612.257 220.358 586.323L480.715 317.85C484.787 345.759 493.649 371.94 506.344 395.897L223.711 687.34L559.278 462.83C590.176 489.999 628.259 508.77 670.175 515.685L433.291 759.954L340.836 855.291L417.722 828.616L631.852 944.947C620.355 953.097 606.703 957.79 591.852 957.79C585.146 957.79 578.439 956.802 572.451 955.073C580.835 985.699 608.379 1008.17 640.714 1008.17C663.469 1008.17 683.588 997.061 696.522 980.019L725.983 996.073L742.51 1004.96C748.977 1008.42 753.528 1015.34 753.528 1022.75C753.528 1029.91 752.57 1036.58 750.893 1043C780.594 1034.36 802.39 1005.95 802.39 972.609C802.39 946.676 789.216 923.953 769.336 911.11V910.616L763.109 907.158L756.402 903.453L744.187 896.785C757.121 883.2 774.845 874.803 794.725 874.803C801.432 874.803 808.138 875.791 814.126 877.519C805.743 846.893 778.198 824.418 745.863 824.418C718.558 824.418 695.085 840.472 683.109 863.688L540.116 785.888L846.461 469.993V470.487Z" fill="url(#paint0_linear_13854_8721)"/>
</g>
<defs>
<linearGradient id="paint0_linear_13854_8721" x1="-12.762" y1="248.598" x2="937.002" y2="241.62" gradientUnits="userSpaceOnUse">
<stop stop-color="#D9D9D9" stop-opacity="0.96"/>
<stop offset="1" stop-color="#D9D9D9" stop-opacity="0"/>
</linearGradient>
</defs>
</svg>
