<svg width="1395" height="1551" viewBox="0 0 1395 1551" fill="none" xmlns="http://www.w3.org/2000/svg">
<g style="mix-blend-mode:soft-light" opacity="0.2">
<path d="M134.793 699.393C52.7764 635.142 0 533.441 0 419.624C0 225.767 153.336 67.8919 341.618 67.8919C430.767 67.8919 512.071 103.139 573.048 161.149H573.405L1165.71 770.254C1186.39 791.549 1219.91 791.549 1240.24 770.254C1250.22 759.973 1255.57 746.389 1255.57 731.703C1255.57 717.017 1250.22 703.432 1240.24 693.152L895.41 338.116C855.472 296.995 835.146 240.086 839.782 182.076C844.417 124.066 873.301 71.1964 919.302 37.4184C996.327 -19.4902 1100.45 -10.6785 1167.49 58.346L1318.33 213.651L1371.46 158.946V366.386H1169.99L1219.56 315.352L1068.72 160.047C1050.17 140.955 1021.64 138.752 1000.25 154.173C982.776 167.023 979.21 184.646 978.497 193.825C977.784 203.371 978.497 221.361 993.831 236.782L1338.66 591.818C1375.03 629.267 1395 678.833 1395 731.703C1395 784.573 1375.03 834.138 1338.66 871.588C1301.22 910.138 1252.01 929.598 1202.8 929.598C1153.59 929.598 1104.37 910.138 1066.93 871.588L679.314 472.493C673.252 513.982 660.058 552.9 641.158 588.513L1061.94 1021.75L562.351 688.012C516.35 728.398 459.651 756.302 397.247 766.582L749.92 1129.7L887.565 1271.42L773.098 1231.76L454.302 1404.69C471.419 1416.81 491.745 1423.78 513.854 1423.78C523.838 1423.78 533.823 1422.32 542.738 1419.75C530.257 1465.27 489.248 1498.68 441.108 1498.68C407.232 1498.68 377.278 1482.16 358.021 1456.83L314.16 1480.69L289.555 1493.91C279.927 1499.05 273.152 1509.33 273.152 1520.35C273.152 1530.99 274.578 1540.91 277.075 1550.45C232.857 1537.6 200.406 1495.38 200.406 1445.81C200.406 1407.26 220.019 1373.48 249.617 1354.39V1353.66L258.888 1348.52L268.873 1343.01L287.059 1333.1C267.803 1312.9 241.415 1300.42 211.818 1300.42C201.833 1300.42 191.848 1301.89 182.933 1304.46C195.414 1258.93 236.423 1225.52 284.563 1225.52C325.215 1225.52 360.161 1249.39 377.991 1283.9L590.878 1168.25L134.793 698.659V699.393Z" fill="url(#paint0_linear_13604_712)"/>
</g>
<defs>
<linearGradient id="paint0_linear_13604_712" x1="1414" y1="369.548" x2="-0.00320532" y2="359.144" gradientUnits="userSpaceOnUse">
<stop stop-color="#D9D9D9" stop-opacity="0.96"/>
<stop offset="1" stop-color="#D9D9D9" stop-opacity="0"/>
</linearGradient>
</defs>
</svg>
